{"asset":{"version":"2.0","generator":"Maison Lumiere demo flacon generator"},"scene":0,"scenes":[{"nodes":[0,1]}],"nodes":[{"name":"Bottle","mesh":0},{"name":"Cap","mesh":1,"translation":[0,1.78,0]}],"meshes":[{"name":"Bottle","primitives":[{"attributes":{"POSITION":0,"NORMAL":1},"indices":2,"material":0},{"attributes":{"POSITION":3,"NORMAL":4},"indices":5,"material":0},{"attributes":{"POSITION":6,"NORMAL":7},"indices":8,"material":2},{"attributes":{"POSITION":9,"NORMAL":10},"indices":11,"material":1},{"attributes":{"POSITION":12,"NORMAL":13},"indices":14,"material":2}]},{"name":"Cap","primitives":[{"attributes":{"POSITION":15,"NORMAL":16},"indices":17,"material":3},{"attributes":{"POSITION":18,"NORMAL":19},"indices":20,"material":2}]}],"materials":[{"name":"GlassGold","pbrMetallicRoughness":{"baseColorFactor":[0.86,0.72,0.45,0.5],"metallicFactor":0,"roughnessFactor":0.12},"alphaMode":"BLEND","doubleSided":true},{"name":"Liquid","pbrMetallicRoughness":{"baseColorFactor":[0.8,0.52,0.22,0.9],"metallicFactor":0,"roughnessFactor":0.22},"alphaMode":"BLEND"},{"name":"Gold","pbrMetallicRoughness":{"baseColorFactor":[0.83,0.68,0.4,1],"metallicFactor":1,"roughnessFactor":0.26}},{"name":"Cap","pbrMetallicRoughness":{"baseColorFactor":[0.05,0.05,0.06,1],"metallicFactor":0.5,"roughnessFactor":0.35}}],"accessors":[{"bufferView":0,"componentType":5126,"count":112,"type":"VEC3","min":[-0.75,-0.44999998807907104,-0.42500001192092896],"max":[0.75,1.5499999523162842,0.42500001192092896]},{"bufferView":1,"componentType":5126,"count":112,"type":"VEC3"},{"bufferView":2,"componentType":5123,"count":396,"type":"SCALAR"},{"bufferView":3,"componentType":5126,"count":292,"type":"VEC3","min":[-0.5199999809265137,0.9800000190734863,-0.5199999809265137],"max":[0.5199999809265137,1.3200000524520874,0.5199999809265137]},{"bufferView":4,"componentType":5126,"count":292,"type":"VEC3"},{"bufferView":5,"componentType":5123,"count":576,"type":"SCALAR"},{"bufferView":6,"componentType":5126,"count":196,"type":"VEC3","min":[-0.17000000178813934,1.309999942779541,-0.17000000178813934],"max":[0.17000000178813934,1.590000033378601,0.17000000178813934]},{"bufferView":7,"componentType":5126,"count":196,"type":"VEC3"},{"bufferView":8,"componentType":5123,"count":384,"type":"SCALAR"},{"bufferView":9,"componentType":5126,"count":24,"type":"VEC3","min":[-0.6700000166893005,-0.550000011920929,-0.3400000035762787],"max":[0.6700000166893005,0.8499999642372131,0.3400000035762787]},{"bufferView":10,"componentType":5126,"count":24,"type":"VEC3"},{"bufferView":11,"componentType":5123,"count":36,"type":"SCALAR"},{"bufferView":12,"componentType":5126,"count":24,"type":"VEC3","min":[-0.8899999856948853,-0.5699999928474426,-0.5299999713897705],"max":[0.8899999856948853,-0.4300000071525574,0.5299999713897705]},{"bufferView":13,"componentType":5126,"count":24,"type":"VEC3"},{"bufferView":14,"componentType":5123,"count":36,"type":"SCALAR"},{"bufferView":15,"componentType":5126,"count":292,"type":"VEC3","min":[-0.3400000035762787,-0.25,-0.3400000035762787],"max":[0.3400000035762787,0.25,0.3400000035762787]},{"bufferView":16,"componentType":5126,"count":292,"type":"VEC3"},{"bufferView":17,"componentType":5123,"count":576,"type":"SCALAR"},{"bufferView":18,"componentType":5126,"count":1281,"type":"VEC3","min":[-0.328000009059906,0.19200000166893005,-0.328000009059906],"max":[0.328000009059906,0.24799999594688416,0.328000009059906]},{"bufferView":19,"componentType":5126,"count":1281,"type":"VEC3"},{"bufferView":20,"componentType":5123,"count":7200,"type":"SCALAR"}],"bufferViews":[{"buffer":0,"byteOffset":0,"byteLength":1344,"target":34962},{"buffer":0,"byteOffset":1344,"byteLength":1344,"target":34962},{"buffer":0,"byteOffset":2688,"byteLength":792,"target":34963},{"buffer":0,"byteOffset":3480,"byteLength":3504,"target":34962},{"buffer":0,"byteOffset":6984,"byteLength":3504,"target":34962},{"buffer":0,"byteOffset":10488,"byteLength":1152,"target":34963},{"buffer":0,"byteOffset":11640,"byteLength":2352,"target":34962},{"buffer":0,"byteOffset":13992,"byteLength":2352,"target":34962},{"buffer":0,"byteOffset":16344,"byteLength":768,"target":34963},{"buffer":0,"byteOffset":17112,"byteLength":288,"target":34962},{"buffer":0,"byteOffset":17400,"byteLength":288,"target":34962},{"buffer":0,"byteOffset":17688,"byteLength":72,"target":34963},{"buffer":0,"byteOffset":17760,"byteLength":288,"target":34962},{"buffer":0,"byteOffset":18048,"byteLength":288,"target":34962},{"buffer":0,"byteOffset":18336,"byteLength":72,"target":34963},{"buffer":0,"byteOffset":18408,"byteLength":3504,"target":34962},{"buffer":0,"byteOffset":21912,"byteLength":3504,"target":34962},{"buffer":0,"byteOffset":25416,"byteLength":1152,"target":34963},{"buffer":0,"byteOffset":26568,"byteLength":15372,"target":34962},{"buffer":0,"byteOffset":41940,"byteLength":15372,"target":34962},{"buffer":0,"byteOffset":57312,"byteLength":14400,"target":34963}],"buffers":[{"byteLength":71712,"uri":"data:application/octet-stream;base64,"}]}